<svg width="46" height="34" viewBox="0 0 46 34" fill="none" xmlns="http://www.w3.org/2000/svg">
<path d="M43 17.0004C39.5062 24.1528 30.755 31 22.9996 31C15.244 31 6.49292 24.1528 3 16.9996" stroke="white" stroke-width="5" stroke-linecap="round" stroke-linejoin="round"/>
<path d="M43 17.0004C39.5062 9.84796 30.7564 3 23.001 3C15.2454 3 6.49292 9.84628 3 16.9996" stroke="white" stroke-width="5" stroke-linecap="round" stroke-linejoin="round"/>
<path d="M19.64 14.92H18.8C18.4287 14.92 18.0726 14.7725 17.8101 14.5099C17.5475 14.2474 17.4 13.8913 17.4 13.52C17.4 13.1487 17.5475 12.7926 17.8101 12.5301C18.0726 12.2675 18.4287 12.12 18.8 12.12H19.64M19.64 14.92V11H26.36V14.92M19.64 14.92C19.64 15.8111 19.994 16.6658 20.6241 17.2959C21.2542 17.926 22.1089 18.28 23 18.28C23.8911 18.28 24.7458 17.926 25.3759 17.2959C26.006 16.6658 26.36 15.8111 26.36 14.92M26.36 14.92H27.2C27.5713 14.92 27.9274 14.7725 28.19 14.5099C28.4525 14.2474 28.6 13.8913 28.6 13.52C28.6 13.1487 28.4525 12.7926 28.19 12.5301C27.9274 12.2675 27.5713 12.12 27.2 12.12H26.36M18.52 22.2H27.48M21.88 18.0896V19.4C21.88 19.708 21.6168 19.9488 21.3368 20.0776C20.676 20.38 20.2 21.2144 20.2 22.2M24.12 18.0896V19.4C24.12 19.708 24.3832 19.9488 24.6632 20.0776C25.324 20.38 25.8 21.2144 25.8 22.2" stroke="white" stroke-width="2" stroke-linecap="round" stroke-linejoin="round"/>
</svg>
